<svg width="991" height="346" viewBox="0 0 991 346" fill="none" xmlns="http://www.w3.org/2000/svg">
<g clip-path="url(#clip0_32_4)">
<rect width="991" height="346" rx="20" fill="white"/>
<path d="M334.07 90.785C352.821 95.1142 359.855 118.119 346.73 132.194L169.541 322.205C156.416 336.28 132.976 330.869 127.35 312.465L51.3894 64.0095C45.7627 45.6055 62.169 28.0118 80.9208 32.341L334.07 90.785Z" fill="#1DACE3"/>
<path d="M271.11 16.3884C289.531 10.8196 307.073 27.2811 302.685 46.0192L243.446 298.983C239.058 317.721 216.031 324.682 201.998 311.513L12.5439 133.729C-1.48968 120.559 3.99542 97.1368 22.4171 91.5679L271.11 16.3884Z" fill="#E9327C" fill-opacity="0.7"/>
<path d="M392.26 235V97.33H422.875V235H392.26ZM415.66 180.985V154.66H484.495V180.985H415.66ZM415.66 123.655V97.33H487.615V123.655H415.66ZM507.28 235V97.33H537.895V235H507.28ZM564.408 235V97.33H585.858L595.023 124.825V235H564.408ZM659.373 235L578.253 131.065L585.858 97.33L666.978 201.265L659.373 235ZM659.373 235L651.183 207.505V97.33H681.798V235H659.373ZM773.698 237.145C763.428 237.145 753.873 235.39 745.033 231.88C736.323 228.24 728.653 223.17 722.023 216.67C715.523 210.17 710.453 202.63 706.813 194.05C703.173 185.34 701.353 175.98 701.353 165.97C701.353 155.96 703.173 146.665 706.813 138.085C710.453 129.375 715.523 121.835 722.023 115.465C728.523 109.095 736.128 104.155 744.838 100.645C753.678 97.005 763.233 95.185 773.503 95.185C784.423 95.185 794.108 96.94 802.558 100.45C811.138 103.96 818.613 108.77 824.983 114.88L804.508 135.55C800.868 131.65 796.448 128.595 791.248 126.385C786.178 124.175 780.263 123.07 773.503 123.07C767.523 123.07 761.998 124.11 756.928 126.19C751.988 128.14 747.698 131 744.058 134.77C740.548 138.54 737.753 143.09 735.673 148.42C733.723 153.75 732.748 159.6 732.748 165.97C732.748 172.47 733.723 178.385 735.673 183.715C737.753 189.045 740.548 193.595 744.058 197.365C747.698 201.135 751.988 204.06 756.928 206.14C761.998 208.22 767.523 209.26 773.503 209.26C780.523 209.26 786.633 208.155 791.833 205.945C797.033 203.735 801.518 200.68 805.288 196.78L825.958 217.45C819.328 223.56 811.723 228.37 803.143 231.88C794.693 235.39 784.878 237.145 773.698 237.145ZM903.009 237.34C892.609 237.34 882.989 235.52 874.149 231.88C865.439 228.24 857.769 223.17 851.139 216.67C844.509 210.17 839.374 202.63 835.734 194.05C832.094 185.34 830.274 175.98 830.274 165.97C830.274 155.83 832.094 146.47 835.734 137.89C839.374 129.31 844.444 121.835 850.944 115.465C857.444 108.965 865.049 103.96 873.759 100.45C882.599 96.81 892.219 94.99 902.619 94.99C912.889 94.99 922.379 96.81 931.089 100.45C939.929 103.96 947.599 108.965 954.099 115.465C960.729 121.835 965.864 129.375 969.504 138.085C973.144 146.665 974.964 156.025 974.964 166.165C974.964 176.175 973.144 185.535 969.504 194.245C965.864 202.825 960.794 210.365 954.294 216.865C947.794 223.235 940.124 228.24 931.284 231.88C922.574 235.52 913.149 237.34 903.009 237.34ZM902.619 209.455C910.809 209.455 917.959 207.635 924.069 203.995C930.309 200.355 935.119 195.285 938.499 188.785C941.879 182.155 943.569 174.55 943.569 165.97C943.569 159.47 942.594 153.62 940.644 148.42C938.694 143.09 935.899 138.54 932.259 134.77C928.619 130.87 924.264 127.945 919.194 125.995C914.254 123.915 908.729 122.875 902.619 122.875C894.429 122.875 887.214 124.695 880.974 128.335C874.864 131.845 870.119 136.85 866.739 143.35C863.359 149.72 861.669 157.26 861.669 165.97C861.669 172.47 862.644 178.385 864.594 183.715C866.544 189.045 869.274 193.66 872.784 197.56C876.424 201.33 880.779 204.255 885.849 206.335C890.919 208.415 896.509 209.455 902.619 209.455Z" fill="#001A49"/>
</g>
<defs>
<clipPath id="clip0_32_4">
<rect width="991" height="346" rx="20" fill="white"/>
</clipPath>
</defs>
</svg>
